<?xml version="1.0" encoding="iso-8859-1"?>
<!-- Generator: Adobe Illustrator 19.0.0, SVG Export Plug-In . SVG Version: 6.00 Build 0)  -->
<svg version="1.1" id="Layer_1" xmlns="http://www.w3.org/2000/svg" xmlns:xlink="http://www.w3.org/1999/xlink" x="0px" y="0px"
	 viewBox="0 0 111.772 111.772" style="enable-background:new 0 0 111.772 111.772;" xml:space="preserve">
<g>
	<rect y="42.528" style="fill:#DD3D12;" width="111.772" height="59.919"/>
	<rect x="43.165" y="3.204" style="fill:#00999C;" width="25.881" height="18.316"/>
	<polygon style="fill:#232323;" points="61.925,11.043 57.424,11.043 57.424,6.542 54.787,6.542 54.787,11.043 50.286,11.043 
		50.286,13.681 54.787,13.681 54.787,18.181 57.424,18.181 57.424,13.681 61.925,13.681 	"/>
	<g>
		<g>
			<rect x="5.347" y="47.438" style="fill:#00999C;" width="8.245" height="8.247"/>
			<rect x="18.811" y="47.438" style="fill:#00999C;" width="8.246" height="8.247"/>
		</g>
		<g>
			<rect x="5.347" y="60.79" style="fill:#00999C;" width="8.245" height="8.247"/>
			<rect x="18.811" y="60.79" style="fill:#00999C;" width="8.246" height="8.247"/>
		</g>
		<g>
			<rect x="5.347" y="74.141" style="fill:#00999C;" width="8.245" height="8.247"/>
			<rect x="18.811" y="74.141" style="fill:#00999C;" width="8.246" height="8.247"/>
		</g>
		<g>
			<rect x="5.347" y="87.492" style="fill:#00999C;" width="8.245" height="8.246"/>
			<rect x="18.811" y="87.492" style="fill:#00999C;" width="8.246" height="8.246"/>
		</g>
	</g>
	<g>
		<g>
			<rect x="85.065" y="48.339" style="fill:#00999C;" width="8.247" height="8.247"/>
			<rect x="98.53" y="48.339" style="fill:#00999C;" width="8.245" height="8.247"/>
		</g>
		<g>
			<rect x="85.065" y="61.689" style="fill:#00999C;" width="8.247" height="8.247"/>
			<rect x="98.53" y="61.689" style="fill:#00999C;" width="8.245" height="8.247"/>
		</g>
		<g>
			<rect x="85.065" y="75.041" style="fill:#00999C;" width="8.247" height="8.247"/>
			<rect x="98.53" y="75.041" style="fill:#00999C;" width="8.245" height="8.247"/>
		</g>
		<g>
			<rect x="85.065" y="88.392" style="fill:#00999C;" width="8.247" height="8.247"/>
			<rect x="98.53" y="88.392" style="fill:#00999C;" width="8.245" height="8.247"/>
		</g>
	</g>
	<rect x="26.442" y="21.52" style="fill:#EF4F28;" width="58.01" height="80.928"/>
	<g>
		<g>
			<rect x="34.64" y="27.757" style="fill:#08B4B9;" width="9.82" height="9.821"/>
			<rect x="50.674" y="27.757" style="fill:#08B4B9;" width="9.821" height="9.821"/>
			<rect x="66.708" y="27.757" style="fill:#08B4B9;" width="9.821" height="9.821"/>
		</g>
		<g>
			<rect x="34.503" y="42.528" style="fill:#08B4B9;" width="9.82" height="9.822"/>
			<rect x="50.537" y="42.528" style="fill:#08B4B9;" width="9.82" height="9.822"/>
			<rect x="66.571" y="42.528" style="fill:#08B4B9;" width="9.821" height="9.822"/>
		</g>
		<g>
			<rect x="34.366" y="57.3" style="fill:#08B4B9;" width="9.819" height="9.821"/>
			<rect x="50.401" y="57.3" style="fill:#08B4B9;" width="9.82" height="9.821"/>
			<rect x="66.434" y="57.3" style="fill:#08B4B9;" width="9.821" height="9.821"/>
		</g>
		<g>
			<rect x="34.228" y="72.072" style="fill:#08B4B9;" width="9.821" height="9.822"/>
			<rect x="50.264" y="72.072" style="fill:#08B4B9;" width="9.821" height="9.822"/>
			<rect x="66.298" y="72.072" style="fill:#08B4B9;" width="9.821" height="9.822"/>
		</g>
		<g>
			<rect x="34.092" y="86.845" style="fill:#08B4B9;" width="9.82" height="9.821"/>
			<rect x="47.759" y="86.189" style="fill:#08B4B9;" width="14.166" height="16.259"/>
			<rect x="66.161" y="86.845" style="fill:#08B4B9;" width="9.821" height="9.821"/>
		</g>
	</g>
	<rect x="26.442" y="102.448" style="fill:#131112;" width="58.01" height="3.06"/>
	<rect x="24.09" y="105.508" style="fill:#212124;" width="62.39" height="3.061"/>
</g>
<g>
</g>
<g>
</g>
<g>
</g>
<g>
</g>
<g>
</g>
<g>
</g>
<g>
</g>
<g>
</g>
<g>
</g>
<g>
</g>
<g>
</g>
<g>
</g>
<g>
</g>
<g>
</g>
<g>
</g>
</svg>
